<?xml version="1.0" encoding="UTF-8" standalone="no"?>
<!-- Generator: Adobe Illustrator 12.0.0, SVG Export Plug-In . SVG Version: 6.00 Build 51448)  -->

<svg
   xmlns:dc="http://purl.org/dc/elements/1.1/"
   xmlns:cc="http://creativecommons.org/ns#"
   xmlns:rdf="http://www.w3.org/1999/02/22-rdf-syntax-ns#"
   xmlns:svg="http://www.w3.org/2000/svg"
   xmlns="http://www.w3.org/2000/svg"
   xmlns:sodipodi="http://sodipodi.sourceforge.net/DTD/sodipodi-0.dtd"
   xmlns:inkscape="http://www.inkscape.org/namespaces/inkscape"
   version="1.1"
   id="Layer_1"
   width="400"
   height="300"
   viewBox="0 0 400 300"
   overflow="visible"
   enable-background="new 0 0 600.044 300"
   xml:space="preserve"
   inkscape:version="0.91 r13725"
   sodipodi:docname="fern.svg"
   style="overflow:visible"><metadata
     id="metadata9"><rdf:RDF><cc:Work
         rdf:about=""><dc:format>image/svg+xml</dc:format><dc:type
           rdf:resource="http://purl.org/dc/dcmitype/StillImage" /><dc:title></dc:title></cc:Work></rdf:RDF></metadata><defs
     id="defs7" /><sodipodi:namedview
     pagecolor="#000000"
     bordercolor="#666666"
     borderopacity="1"
     objecttolerance="10"
     gridtolerance="10"
     guidetolerance="10"
     inkscape:pageopacity="0"
     inkscape:pageshadow="2"
     inkscape:window-width="1920"
     inkscape:window-height="1043"
     id="namedview5"
     showgrid="false"
     fit-margin-left="3.947815"
     fit-margin-top="6"
     fit-margin-right="3.947815"
     fit-margin-bottom="6"
     inkscape:zoom="0.5699582"
     inkscape:cx="196.97148"
     inkscape:cy="61.7833"
     inkscape:window-x="0"
     inkscape:window-y="0"
     inkscape:window-maximized="1"
     inkscape:current-layer="Layer_1" /><path
     d="m 396.05217,27 c -6.063,-0.706 -9.724,6.243 -14,4 1.416,-6.059 13.799,-11.343 13,-13 -2.314,2.1 -3.942,2.876 -5.69,3.099 l 0.036,-3.481 c 1.702,-4.25 8.816,-8.946 4.654,-11.618 -1.557,2.903 -5.475,7.069 -5.498,10.807 l -2.601,4.264 c -0.29,-0.022 -0.588,-0.046 -0.901,-0.071 0.404,-18.784 -1.073,6.949 -6,9 -0.642,-4.025 1.3,-10.633 -1,-13 -3.438,6.563 -0.036,19.964 -8,22 -1.027,-6.386 3.69,-12.277 1,-17 -4.866,8.134 -2.001,23.999 -10,29 -0.422,-9.879 2.196,-10.947 2,-21 -10.175,4.158 -2.604,26.063 -13,30 -0.721,-9.066 3.106,-18.878 2,-25 -9.478,7.522 -1.784,32.216 -15,36 2.159,-8.507 3.631,-17.702 4,-28 -13.409,4.261 -2.714,37.948 -17,38 1.749,-9.259 5.562,-21.762 3,-32 -11.987,6.683 -3.67,38.993 -17,41 1.786,-12.981 3.649,-19.709 4,-34 -16.625,4.708 -2,40.667 -20,44 2.216,-15.733 4.603,-26.712 4,-41 -17.263,9.681 -2.285,48.761 -24,52 3.461,-13.539 6.427,-27.574 6,-45 -13.28,6.551 -12.593,33.345 -16,51 -3.413,-0.03 -7.185,4.749 -10,2 4.596,-13.738 6.602,-30.065 6,-49 -13.909,9.424 -12.351,34.316 -16,54 -2.978,2.022 -5.854,4.146 -11,4 4.619,-15.716 6.22,-39.777 7,-56 -14.927,12.62 -14.771,34.257 -17,59 -3.012,2.321 -6.108,4.559 -11,5 3.831,-17.836 4.784,-38.549 7,-58 -15.431,10.114 -16.213,34.566 -17,62 -5.611,0.723 -7.847,4.82 -14,5 7.33,-15.522 5.442,-38.836 8,-61 -16.021,8.667 -18.757,39.227 -19,67 -5.584,1.082 -7.591,5.742 -14,6 6.326,-17.009 5.983,-46.015 5,-67 -17.673,14.446 -19.394,44.953 -16,74 -4.981,1.703 -10.148,8.496 -16,6 8.344,-16.976 4.924,-48.187 7,-74 -19.942,12.753 -20.62,48.88 -20,85 -4.751,1.915 -6.881,6.452 -13,7 10.59,-22.104 0.806,-54.112 3,-83 -22.424987,9.36 -21.470987,61.756 -15.999987,93 -5.571,4.762 -8.954,11.713 -18,13 9.11,-31.928 0.802,-67.627 -3,-96 -22.139,21.757 -18.532,76.836 -11,112 -15.6,18.104 -37.295,35.222 -51.999999,54 -3.6650005,4.68 -9.9930005,10.15 -9.0000005,13 l 17.9999995,0 c 19.652,-20.015 34.861,-44.473 55,-64 26.298987,16.182 58.842987,40.496 100.999987,31 -26.056,-16.156 -52.837,-37.605 -88.999987,-42 5.7,-5.634 10.521,-12.146 17.999987,-16 22.228,18.982 50.553,44.148 89,35 -28.197,-11.803 -42.611,-37.389 -79,-41 11.019,-18.943 23.575,-6.096 34,1 16.188,11.018 35.337,26.771 61,22 -20.916,-15.751 -39.195,-34.139 -68,-42 4.697,-3.97 9.571,-7.763 16,-10 19.039,15.104 37.051,36.087 70,34 -11.265,-9.827 -21.646,-16.448 -32,-24 -3.677,-2.682 -6.552,-7.347 -11,-10 -4.974,-2.968 -11.462,-2.12 -15,-8 2.857,-3.477 8.796,-3.871 13,-6 15.39,14.508 32.871,36.812 60,33 -18.021,-11.313 -29.579,-29.088 -51,-37 3.483,-3.517 8.97,-5.03 14,-7 14.91,13.09 24.79,31.21 50,34 -8.728,-13.274 -25.085,-27.58 -40,-38 17.783,-9.506 22.965,9.781 36,18 8.184,5.16 15.751,6.567 25,9 -9.552,-15.115 -24.312,-25.021 -39,-35 4.988,-0.012 6.419,-3.581 12,-3 14.611,8.649 29.782,26.526 50,23 -12.431,-10.236 -25.586,-19.747 -40,-28 21.327,-14.681 32.276,21.815 57,14 -11.633,-8.648 -19.963,-18.127 -37,-23 16.612,-16.239 30.259,16.921 54,9 -11.117,-7.217 -22.509,-14.157 -35,-20 13.8,-15.015 29.946,15.86 48,6 -9.592,-6.408 -20.549,-11.451 -33,-15 9.175,-18.275 27.643,11.326 44,1 -10.102,-3.898 -18.702,-9.298 -30,-12 7.06,-17.256 27.984,7.19 42,-2 -7.425,-7.035 -23.184,-2.145 -28,-10 6.555,-9.914 28.047,3.979 37,-5 -8.53,-1.803 -18.43,-2.237 -26,-5 3.425,-9.909 25.82,-0.846 32,-8 -6.87,-1.37 -17.068,-0.457 -22,-1 4.495,-9.505 22.613,-5.387 28,-14 -7.845,-1.161 -13.424,5.22 -19,3 2.975,-9.025 17.647,-6.353 22,-14 z M 34.052183,262 c 0.655,0.655 -0.419,-0.419 0,0 l 0,0 z m 71.999987,-61 c 0.655,0.655 -0.419,-0.419 0,0 l 0,0 z m 165,-119 c -0.419,-0.419 0.655,0.655 0,0 l 0,0 z m 1,27 c -0.419,-0.419 0.655,0.655 0,0 l 0,0 z m 17,-20 c -0.419,-0.419 0.655,0.655 0,0 l 0,0 z"
     id="path3"
     inkscape:connector-curvature="0"
     style="clip-rule:evenodd;fill:#ffffff;fill-rule:evenodd" /></svg>